# File created by Blade
# Date/Time:  Thu Sep 25 21:01:51 2014
# Frame Rate: 120.000 fps
#------------------------------------------------------
:FULLY-SPECIFIED
:DEGREES
2001
root 4.601734 6.252931 -6.659982 44.293938 2.845688 -34.785318
Spine -4.817253 11.159068 20.854655
Head -35.212230 3.313764 10.920232
LeftShoulder -9.189318 22.878971 18.185292
LeftArm 25.795548 41.276813 -51.268267
LeftForeArm 41.476148 -0.000000 62.649982
LeftHand -23.943921 -0.000000 5.372066
LeftHandThumb1 -26.253704 0.000000 33.147579
RightShoulder -21.809332 0.918258 -27.789339
RightArm -44.532494 -38.550556 94.281892
RightForeArm 12.399220 -0.000000 38.114498
RightHand -3.844248 0.000000 26.981934
RightHandThumb1 -24.326973 -0.000000 -32.862282
LeftUpLeg -122.227132 -22.869970 -35.487658
LeftLeg 133.630040 -0.000000 -0.000000
LeftFoot 41.356039 11.630796 -26.707829
LeftToeBase 4.760151 -0.000000 -0.000000
RightUpLeg -17.252627 19.136721 -43.792408
RightLeg 146.929377 -0.000000 -0.000000
RightFoot 32.326403 -0.074921 -10.273943
RightToeBase 17.568962 -0.000000 -0.000000
2002
root 4.621171 6.273474 -6.650138 44.544899 2.806391 -34.779944
Spine -5.133770 10.992283 20.886583
Head -34.960054 3.343300 10.833992
LeftShoulder -9.372451 23.021816 18.012412
LeftArm 25.593243 41.187384 -51.542972
LeftForeArm 41.526686 0.000000 62.519677
LeftHand -23.881891 -0.000000 5.218641
LeftHandThumb1 -26.253704 0.000000 33.147579
RightShoulder -21.844274 0.717202 -28.137040
RightArm -45.049335 -39.413120 94.584106
RightForeArm 12.664062 -0.000000 39.099006
RightHand -3.793738 -0.000000 26.892423
RightHandThumb1 -24.326973 -0.000000 -32.862282
LeftUpLeg -122.256496 -22.926275 -35.464976
LeftLeg 133.537489 -0.000000 -0.000000
LeftFoot 41.372841 11.600712 -26.639292
LeftToeBase 4.837406 -0.000000 -0.000000
RightUpLeg -17.242073 20.046366 -43.934076
RightLeg 146.789034 -0.000000 -0.000000
RightFoot 32.515170 0.782409 -10.970135
RightToeBase 17.595276 -0.000000 -0.000000
2003
root 4.642315 6.292395 -6.643307 44.786709 2.743181 -34.777497
Spine -5.396893 10.842567 20.955418
Head -34.745043 3.269810 10.697635
LeftShoulder -9.599694 23.193046 17.759497
LeftArm 25.535518 41.096013 -51.643963
LeftForeArm 41.493285 0.000000 62.385845
LeftHand -23.759825 -0.000000 4.973347
LeftHandThumb1 -26.253704 0.000000 33.147579
RightShoulder -21.898677 0.556124 -28.543685
RightArm -45.695374 -40.367755 95.074849
RightForeArm 12.659854 -0.000000 40.145760
RightHand -3.763304 -0.000000 26.143663
RightHandThumb1 -24.326973 -0.000000 -32.862282
LeftUpLeg -122.296259 -22.974882 -35.457917
LeftLeg 133.443490 -0.000000 -0.000000
LeftFoot 41.345731 11.446011 -26.353762
LeftToeBase 4.635455 -0.000000 -0.000000
RightUpLeg -17.262562 20.928037 -44.129029
RightLeg 146.676558 -0.000000 -0.000000
RightFoot 32.508948 1.466914 -11.471153
RightToeBase 17.441283 -0.000000 -0.000000
2004
root 4.671141 6.304181 -6.639258 45.005118 2.694305 -34.662363
Spine -5.674815 10.558495 20.959697
Head -34.579941 3.300051 10.501064
LeftShoulder -9.792656 23.280792 17.564637
LeftArm 25.362494 41.082587 -51.855737
LeftForeArm 41.383252 -0.000000 62.231059
LeftHand -23.797739 -0.000000 5.012001
LeftHandThumb1 -26.253704 0.000000 33.147579
RightShoulder -21.871747 0.452084 -28.934223
RightArm -46.259732 -41.110577 95.377700
RightForeArm 12.814743 0.000000 41.153811
RightHand -3.720331 -0.000000 25.943249
RightHandThumb1 -24.326973 -0.000000 -32.862282
LeftUpLeg -122.226749 -23.092999 -35.554065
LeftLeg 133.306993 -0.000000 -0.000000
LeftFoot 41.338238 11.363037 -26.180787
LeftToeBase 4.589926 -0.000000 -0.000000
RightUpLeg -17.143781 21.355741 -44.291108
RightLeg 146.601912 -0.000000 -0.000000
RightFoot 32.308774 0.538726 -11.439681
RightToeBase 18.059745 -0.000000 -0.000000
2005
root 4.692123 6.317235 -6.632704 45.222104 2.630175 -34.604560
Spine -5.962359 10.341825 20.982932
Head -34.370645 3.296153 10.385440
LeftShoulder -9.898752 23.323472 17.427607
LeftArm 25.034920 41.064987 -52.183114
LeftForeArm 41.359141 0.000000 62.098914
LeftHand -23.764726 -0.000000 4.879181
LeftHandThumb1 -26.253704 0.000000 33.147579
RightShoulder -21.925666 0.203750 -29.278277
RightArm -46.577892 -41.913152 95.527715
RightForeArm 13.063989 -0.000000 42.091194
RightHand -3.660840 0.000000 25.909353
RightHandThumb1 -24.326973 -0.000000 -32.862282
LeftUpLeg -122.237244 -23.170970 -35.592203
LeftLeg 133.210224 -0.000000 -0.000000
LeftFoot 41.332596 11.316750 -26.069350
LeftToeBase 4.639421 -0.000000 -0.000000
RightUpLeg -17.149706 21.948824 -44.488424
RightLeg 146.494102 -0.000000 -0.000000
RightFoot 32.302232 0.320535 -11.526290
RightToeBase 17.900865 -0.000000 -0.000000
2006
root 4.709972 6.326966 -6.627971 45.396838 2.595718 -34.532378
Spine -6.185298 10.148180 21.042212
Head -34.247916 3.272613 10.208270
LeftShoulder -9.962826 23.306130 17.296675
LeftArm 24.746634 41.085054 -52.453391
LeftForeArm 41.320555 -0.000000 61.965318
LeftHand -23.747142 -0.000000 4.770290
LeftHandThumb1 -26.253704 0.000000 33.147579
RightShoulder -22.052404 0.042441 -29.679106
RightArm -46.999581 -42.639960 95.718884
RightForeArm 13.368306 0.000000 43.076456
RightHand -3.706762 -0.000000 25.704926
RightHandThumb1 -24.326973 -0.000000 -32.862282
LeftUpLeg -122.209765 -23.260271 -35.648462
LeftLeg 133.126929 -0.000000 -0.000000
LeftFoot 41.305456 11.220084 -25.890145
LeftToeBase 4.709505 -0.000000 -0.000000
RightUpLeg -17.126417 22.601936 -44.703278
RightLeg 146.391844 -0.000000 -0.000000
RightFoot 32.215437 0.772489 -12.024038
RightToeBase 17.834019 -0.000000 -0.000000
2007
root 4.720821 6.338628 -6.621389 45.536829 2.600144 -34.463022
Spine -6.404966 9.860102 21.131889
Head -34.083696 3.304273 10.082537
LeftShoulder -10.054645 23.465497 17.163145
LeftArm 24.628506 41.035142 -52.631622
LeftForeArm 41.279994 -0.000000 61.791245
LeftHand -23.772727 -0.000000 4.771074
LeftHandThumb1 -26.253704 0.000000 33.147579
RightShoulder -22.096024 -0.140603 -30.047703
RightArm -47.377940 -43.372432 95.923980
RightForeArm 13.432614 -0.000000 44.073781
RightHand -3.718546 0.000000 25.307873
RightHandThumb1 -24.326973 -0.000000 -32.862282
LeftUpLeg -122.176895 -23.338662 -35.684590
LeftLeg 133.063027 -0.000000 -0.000000
LeftFoot 41.294516 11.156453 -25.749323
LeftToeBase 4.984492 -0.000000 -0.000000
RightUpLeg -17.094428 23.165894 -44.840009
RightLeg 146.328962 -0.000000 -0.000000
RightFoot 32.302983 1.077558 -12.461824
RightToeBase 17.165500 -0.000000 -0.000000
2008
root 4.730409 6.350515 -6.615542 45.676892 2.610827 -34.421854
Spine -6.639440 9.568864 21.242494
Head -33.897637 3.411871 9.996627
LeftShoulder -10.087428 23.448165 17.134815
LeftArm 24.220040 41.080617 -53.084231
LeftForeArm 41.294378 -0.000000 61.614941
LeftHand -23.746312 -0.000000 4.699576
LeftHandThumb1 -26.253704 0.000000 33.147579
RightShoulder -22.158016 -0.388917 -30.340993
RightArm -47.496963 -44.073614 95.864682
RightForeArm 13.576280 -0.000000 44.984699
RightHand -3.554936 -0.000000 25.117804
RightHandThumb1 -24.326973 -0.000000 -32.862282
LeftUpLeg -122.172537 -23.401740 -35.691924
LeftLeg 133.009334 -0.000000 -0.000000
LeftFoot 41.305922 11.165274 -25.721627
LeftToeBase 5.048930 -0.000000 -0.000000
RightUpLeg -17.123805 23.783745 -44.991297
RightLeg 146.241568 -0.000000 -0.000000
RightFoot 32.263567 1.373616 -12.570368
RightToeBase 17.347792 -0.000000 -0.000000
2009
root 4.740357 6.359651 -6.610247 45.760537 2.616061 -34.348825
Spine -6.771908 9.240643 21.365339
Head -33.710564 3.433021 9.910579
LeftShoulder -10.191892 23.547070 16.996565
LeftArm 24.074676 41.061196 -53.284769
LeftForeArm 41.227944 -0.000000 61.434478
LeftHand -23.777842 -0.000000 4.700541
LeftHandThumb1 -26.253704 0.000000 33.147579
RightShoulder -22.272077 -0.546491 -30.669082
RightArm -47.645068 -44.826650 95.825007
RightForeArm 13.596914 0.000000 45.952530
RightHand -3.567311 -0.000000 25.000541
RightHandThumb1 -24.326973 -0.000000 -32.862282
LeftUpLeg -122.104487 -23.455883 -35.733617
LeftLeg 132.956096 -0.000000 -0.000000
LeftFoot 41.275389 11.148332 -25.717652
LeftToeBase 5.083899 -0.000000 -0.000000
RightUpLeg -17.120639 24.321149 -45.136358
RightLeg 146.162540 -0.000000 -0.000000
RightFoot 32.376107 1.597438 -12.720672
RightToeBase 17.308920 -0.000000 -0.000000
2010
root 4.749655 6.365429 -6.607277 45.833598 2.614435 -34.291544
Spine -6.920237 8.903962 21.495352
Head -33.590089 3.553832 9.802020
LeftShoulder -10.209948 23.582316 16.963317
LeftArm 23.738607 41.071239 -53.685857
LeftForeArm 41.134590 -0.000000 61.270782
LeftHand -23.827244 -0.000000 4.693185
LeftHandThumb1 -26.253704 0.000000 33.147579
RightShoulder -22.335742 -0.763977 -30.927321
RightArm -47.584714 -45.509229 95.548756
RightForeArm 13.770450 -0.000000 46.894237
RightHand -3.547876 -0.000000 25.095548
RightHandThumb1 -24.326973 -0.000000 -32.862282
LeftUpLeg -122.084969 -23.511114 -35.761392
LeftLeg 132.908563 -0.000000 -0.000000
LeftFoot 41.279234 11.079087 -25.581867
LeftToeBase 5.275546 -0.000000 -0.000000
RightUpLeg -17.168424 24.861478 -45.312981
RightLeg 146.107087 -0.000000 -0.000000
RightFoot 32.446411 1.803980 -12.781215
RightToeBase 17.305350 -0.000000 -0.000000
2011
root 4.756019 6.371640 -6.603750 45.898301 2.631800 -34.225626
Spine -7.070862 8.537536 21.625044
Head -33.402762 3.650959 9.764660
LeftShoulder -10.268969 23.768381 16.875149
LeftArm 23.579875 40.989057 -53.925393
LeftForeArm 41.024412 -0.000000 61.139668
LeftHand -23.885455 0.000000 4.609187
LeftHandThumb1 -26.253704 0.000000 33.147579
RightShoulder -22.443571 -0.880612 -31.194943
RightArm -47.670552 -46.365320 95.450916
RightForeArm 13.741782 -0.000000 47.819237
RightHand -3.500895 -0.000000 24.808531
RightHandThumb1 -24.326973 -0.000000 -32.862282
LeftUpLeg -122.017778 -23.557405 -35.826255
LeftLeg 132.868495 -0.000000 -0.000000
LeftFoot 41.262173 11.053817 -25.526122
LeftToeBase 5.231502 -0.000000 -0.000000
RightUpLeg -17.231672 25.359005 -45.467165
RightLeg 146.071164 -0.000000 -0.000000
RightFoot 32.604567 1.906349 -12.659302
RightToeBase 16.904586 -0.000000 -0.000000
2012
root 4.762270 6.373964 -6.598294 45.924184 2.667339 -34.134311
Spine -7.201075 8.179907 21.750440
Head -33.212047 3.654994 9.751669
LeftShoulder -10.284181 23.848508 16.831252
LeftArm 23.387872 40.999057 -54.183871
LeftForeArm 40.835247 -0.000000 60.985332
LeftHand -23.945302 -0.000000 4.611789
LeftHandThumb1 -26.253704 0.000000 33.147579
RightShoulder -22.542610 -0.981950 -31.425372
RightArm -47.720643 -47.141102 95.300338
RightForeArm 13.907441 -0.000000 48.627426
RightHand -3.304723 -0.000000 24.752712
RightHandThumb1 -24.326973 -0.000000 -32.862282
LeftUpLeg -121.916652 -23.619558 -35.910202
LeftLeg 132.832180 -0.000000 -0.000000
LeftFoot 41.241282 11.059202 -25.476909
LeftToeBase 5.233758 -0.000000 -0.000000
RightUpLeg -17.248915 25.798761 -45.603137
RightLeg 146.037030 -0.000000 -0.000000
RightFoot 32.771682 2.218661 -12.948426
RightToeBase 16.754575 -0.000000 -0.000000
2013
root 4.761636 6.378479 -6.592483 45.928178 2.723408 -34.058775
Spine -7.333864 7.784816 21.887736
Head -32.949008 3.706893 9.793134
LeftShoulder -10.281607 23.912875 16.812774
LeftArm 23.146060 41.018024 -54.460030
LeftForeArm 40.628901 -0.000000 60.834792
LeftHand -23.997403 0.000000 4.599537
LeftHandThumb1 -26.253704 0.000000 33.147579
RightShoulder -22.584722 -0.996927 -31.642263
RightArm -47.836832 -47.950083 95.240824
RightForeArm 13.991763 -0.000000 49.390013
RightHand -3.192269 -0.000000 24.544917
RightHandThumb1 -24.326973 -0.000000 -32.862282
LeftUpLeg -121.832816 -23.657114 -35.959030
LeftLeg 132.826955 -0.000000 -0.000000
LeftFoot 41.245549 11.008386 -25.442692
LeftToeBase 5.232399 -0.000000 -0.000000
RightUpLeg -17.297125 26.250207 -45.707898
RightLeg 146.003508 -0.000000 -0.000000
RightFoot 32.949710 2.583525 -13.064097
RightToeBase 16.839140 -0.000000 -0.000000
